<?xml version="1.0" encoding="iso-8859-1"?>
<!-- Generator: Adobe Illustrator 19.0.0, SVG Export Plug-In . SVG Version: 6.00 Build 0)  -->
<svg xmlns="http://www.w3.org/2000/svg" xmlns:xlink="http://www.w3.org/1999/xlink" version="1.1" id="Capa_1" x="0px" y="0px" viewBox="0 0 512 512" style="enable-background:new 0 0 512 512;" xml:space="preserve" width="512px" height="512px">
<g>
	<g>
		<path d="M302.904,0l-23.02,11.009L256,0.062l-23.885,10.947L209.094,0l-39.168,17.952v27.973    c24.83-16.03,54.383-25.345,86.073-25.345s61.243,9.314,86.073,25.344V17.952L302.904,0z" fill="#933EC5"/>
	</g>
</g>
<g>
	<g>
		<path d="M207.958,157.698c-5.519,0-10.009,4.49-10.009,10.008c0,5.519,4.49,10.009,10.009,10.009s10.009-4.49,10.009-10.009    C217.967,162.187,213.477,157.698,207.958,157.698z" fill="#933EC5"/>
	</g>
</g>
<g>
	<g>
		<path d="M341.143,182.719c-5.952,14.656-20.335,25.021-37.103,25.021c-18.559,0-34.205-12.696-38.719-29.857    c-5.68-3.566-12.963-3.566-18.644,0c-4.515,17.162-20.16,29.857-38.719,29.857c-16.767,0-31.151-10.366-37.103-25.021H126.93    c0.33,14.377,3.026,28.178,7.708,41.035H377.36c4.682-12.857,7.377-26.658,7.709-41.035H341.143z" fill="#933EC5"/>
	</g>
</g>
<g>
	<g>
		<path d="M304.041,157.698c-5.519,0-10.009,4.49-10.009,10.008c0,5.519,4.49,10.009,10.009,10.009    c5.519,0,10.009-4.49,10.009-10.009C314.049,162.187,309.559,157.698,304.041,157.698z" fill="#933EC5"/>
	</g>
</g>
<g>
	<g>
		<path d="M96.897,182.719h-4.865C80.152,193.3,71.649,207.59,68.355,223.754h34.727C99.306,210.683,97.162,196.927,96.897,182.719z    " fill="#933EC5"/>
	</g>
</g>
<g>
	<g>
		<path d="M34.165,253.78L54.99,512h402.02l20.825-258.22H34.165z M256,422.924c-27.594,0-50.043-22.449-50.043-50.043    c0-27.594,22.449-50.043,50.043-50.043s50.043,22.449,50.043,50.043C306.042,400.475,283.593,422.924,256,422.924z" fill="#933EC5"/>
	</g>
</g>
<g>
	<g>
		<path d="M256,352.864c-11.037,0-20.017,8.98-20.017,20.017c0,11.037,8.98,20.017,20.017,20.017s20.017-8.98,20.017-20.017    C276.017,361.844,267.037,352.864,256,352.864z" fill="#933EC5"/>
	</g>
</g>
<g>
	<g>
		<path d="M419.967,182.719h-4.865c-0.265,14.209-2.409,27.964-6.185,41.035h34.727C440.349,207.59,431.847,193.3,419.967,182.719z" fill="#933EC5"/>
	</g>
</g>
<g>
	<g>
		<path d="M256,50.606c-61.926,0-113.799,43.825-126.257,102.087h41.113c5.952-14.657,20.335-25.021,37.103-25.021    c14.576,0,27.354,7.834,34.356,19.51c8.914-2.662,18.457-2.662,27.37,0c7.002-11.676,19.78-19.51,34.355-19.51    c16.766,0,31.151,10.366,37.103,25.021h41.113C369.799,94.432,317.925,50.606,256,50.606z" fill="#933EC5"/>
	</g>
</g>
</svg>
